G04 #@! TF.FileFunction,Copper,L1,Top,Signal*
%FSLAX46Y46*%
G04 Gerber Fmt 4.6, Leading zero omitted, Abs format (unit mm)*
G04 Created by KiCad (PCBNEW 4.0.6) date 08/27/17 18:35:28*
%MOMM*%
%LPD*%
G01*
G04 APERTURE LIST*
%ADD10C,0.100000*%
%ADD11R,1.700000X1.700000*%
%ADD12O,1.700000X1.700000*%
%ADD13O,1.998980X1.998980*%
%ADD14R,1.998980X1.998980*%
%ADD15C,0.600000*%
%ADD16C,0.250000*%
%ADD17C,0.254000*%
G04 APERTURE END LIST*
D10*
D11*
X133350000Y-87630000D03*
D12*
X133350000Y-90170000D03*
X133350000Y-92710000D03*
X133350000Y-95250000D03*
X133350000Y-97790000D03*
X133350000Y-100330000D03*
D13*
X150495000Y-99695000D03*
D14*
X147955000Y-99695000D03*
D13*
X144145000Y-99695000D03*
D14*
X141605000Y-99695000D03*
D11*
X148590000Y-95250000D03*
D12*
X148590000Y-92710000D03*
X148590000Y-90170000D03*
D11*
X137160000Y-102870000D03*
D12*
X137160000Y-100330000D03*
D15*
X141605000Y-88265000D03*
D16*
X133350000Y-87630000D02*
X133985000Y-86995000D01*
X141605000Y-89535000D02*
X133350000Y-97790000D01*
X141605000Y-88265000D02*
X141605000Y-89535000D01*
D17*
G36*
X152325000Y-104065000D02*
X138542812Y-104065000D01*
X138606431Y-103971890D01*
X138657440Y-103720000D01*
X138657440Y-102020000D01*
X138613162Y-101784683D01*
X138474090Y-101568559D01*
X138261890Y-101423569D01*
X138194459Y-101409914D01*
X138239147Y-101380054D01*
X138561054Y-100898285D01*
X138674093Y-100330000D01*
X138561054Y-99761715D01*
X138239147Y-99279946D01*
X137757378Y-98958039D01*
X137189093Y-98845000D01*
X137130907Y-98845000D01*
X136562622Y-98958039D01*
X136080853Y-99279946D01*
X135758946Y-99761715D01*
X135645907Y-100330000D01*
X135758946Y-100898285D01*
X136080853Y-101380054D01*
X136122452Y-101407850D01*
X136074683Y-101416838D01*
X135858559Y-101555910D01*
X135713569Y-101768110D01*
X135662560Y-102020000D01*
X135662560Y-103720000D01*
X135706838Y-103955317D01*
X135777417Y-104065000D01*
X131520000Y-104065000D01*
X131520000Y-90170000D01*
X131835907Y-90170000D01*
X131948946Y-90738285D01*
X132270853Y-91220054D01*
X132600026Y-91440000D01*
X132270853Y-91659946D01*
X131948946Y-92141715D01*
X131835907Y-92710000D01*
X131948946Y-93278285D01*
X132270853Y-93760054D01*
X132600026Y-93980000D01*
X132270853Y-94199946D01*
X131948946Y-94681715D01*
X131835907Y-95250000D01*
X131948946Y-95818285D01*
X132270853Y-96300054D01*
X132600026Y-96520000D01*
X132270853Y-96739946D01*
X131948946Y-97221715D01*
X131835907Y-97790000D01*
X131948946Y-98358285D01*
X132270853Y-98840054D01*
X132600026Y-99060000D01*
X132270853Y-99279946D01*
X131948946Y-99761715D01*
X131835907Y-100330000D01*
X131948946Y-100898285D01*
X132270853Y-101380054D01*
X132752622Y-101701961D01*
X133320907Y-101815000D01*
X133379093Y-101815000D01*
X133947378Y-101701961D01*
X134429147Y-101380054D01*
X134751054Y-100898285D01*
X134864093Y-100330000D01*
X134751054Y-99761715D01*
X134429147Y-99279946D01*
X134099974Y-99060000D01*
X134429147Y-98840054D01*
X134525727Y-98695510D01*
X139958070Y-98695510D01*
X139958070Y-100694490D01*
X140002348Y-100929807D01*
X140141420Y-101145931D01*
X140353620Y-101290921D01*
X140605510Y-101341930D01*
X142604490Y-101341930D01*
X142839807Y-101297652D01*
X143055931Y-101158580D01*
X143169390Y-100992527D01*
X143487486Y-101205072D01*
X144112978Y-101329490D01*
X144177022Y-101329490D01*
X144802514Y-101205072D01*
X145332781Y-100850759D01*
X145687094Y-100320492D01*
X145811512Y-99695000D01*
X145687094Y-99069508D01*
X145437197Y-98695510D01*
X146308070Y-98695510D01*
X146308070Y-100694490D01*
X146352348Y-100929807D01*
X146491420Y-101145931D01*
X146703620Y-101290921D01*
X146955510Y-101341930D01*
X148954490Y-101341930D01*
X149189807Y-101297652D01*
X149405931Y-101158580D01*
X149519390Y-100992527D01*
X149837486Y-101205072D01*
X150462978Y-101329490D01*
X150527022Y-101329490D01*
X151152514Y-101205072D01*
X151682781Y-100850759D01*
X152037094Y-100320492D01*
X152161512Y-99695000D01*
X152037094Y-99069508D01*
X151682781Y-98539241D01*
X151152514Y-98184928D01*
X150527022Y-98060510D01*
X150462978Y-98060510D01*
X149837486Y-98184928D01*
X149517923Y-98398453D01*
X149418580Y-98244069D01*
X149206380Y-98099079D01*
X148954490Y-98048070D01*
X146955510Y-98048070D01*
X146720193Y-98092348D01*
X146504069Y-98231420D01*
X146359079Y-98443620D01*
X146308070Y-98695510D01*
X145437197Y-98695510D01*
X145332781Y-98539241D01*
X144802514Y-98184928D01*
X144177022Y-98060510D01*
X144112978Y-98060510D01*
X143487486Y-98184928D01*
X143167923Y-98398453D01*
X143068580Y-98244069D01*
X142856380Y-98099079D01*
X142604490Y-98048070D01*
X140605510Y-98048070D01*
X140370193Y-98092348D01*
X140154069Y-98231420D01*
X140009079Y-98443620D01*
X139958070Y-98695510D01*
X134525727Y-98695510D01*
X134751054Y-98358285D01*
X134864093Y-97790000D01*
X134791210Y-97423592D01*
X139504802Y-92710000D01*
X147075907Y-92710000D01*
X147188946Y-93278285D01*
X147510853Y-93760054D01*
X147552452Y-93787850D01*
X147504683Y-93796838D01*
X147288559Y-93935910D01*
X147143569Y-94148110D01*
X147092560Y-94400000D01*
X147092560Y-96100000D01*
X147136838Y-96335317D01*
X147275910Y-96551441D01*
X147488110Y-96696431D01*
X147740000Y-96747440D01*
X149440000Y-96747440D01*
X149675317Y-96703162D01*
X149891441Y-96564090D01*
X150036431Y-96351890D01*
X150087440Y-96100000D01*
X150087440Y-94400000D01*
X150043162Y-94164683D01*
X149904090Y-93948559D01*
X149691890Y-93803569D01*
X149624459Y-93789914D01*
X149669147Y-93760054D01*
X149991054Y-93278285D01*
X150104093Y-92710000D01*
X149991054Y-92141715D01*
X149669147Y-91659946D01*
X149328447Y-91432298D01*
X149471358Y-91365183D01*
X149861645Y-90936924D01*
X150031476Y-90526890D01*
X149910155Y-90297000D01*
X148717000Y-90297000D01*
X148717000Y-90317000D01*
X148463000Y-90317000D01*
X148463000Y-90297000D01*
X147269845Y-90297000D01*
X147148524Y-90526890D01*
X147318355Y-90936924D01*
X147708642Y-91365183D01*
X147851553Y-91432298D01*
X147510853Y-91659946D01*
X147188946Y-92141715D01*
X147075907Y-92710000D01*
X139504802Y-92710000D01*
X142142401Y-90072401D01*
X142307148Y-89825839D01*
X142309679Y-89813110D01*
X147148524Y-89813110D01*
X147269845Y-90043000D01*
X148463000Y-90043000D01*
X148463000Y-88849181D01*
X148717000Y-88849181D01*
X148717000Y-90043000D01*
X149910155Y-90043000D01*
X150031476Y-89813110D01*
X149861645Y-89403076D01*
X149471358Y-88974817D01*
X148946892Y-88728514D01*
X148717000Y-88849181D01*
X148463000Y-88849181D01*
X148233108Y-88728514D01*
X147708642Y-88974817D01*
X147318355Y-89403076D01*
X147148524Y-89813110D01*
X142309679Y-89813110D01*
X142365000Y-89535000D01*
X142365000Y-88827463D01*
X142397192Y-88795327D01*
X142539838Y-88451799D01*
X142540162Y-88079833D01*
X142398117Y-87736057D01*
X142135327Y-87472808D01*
X141791799Y-87330162D01*
X141419833Y-87329838D01*
X141076057Y-87471883D01*
X140812808Y-87734673D01*
X140670162Y-88078201D01*
X140669838Y-88450167D01*
X140811883Y-88793943D01*
X140845000Y-88827118D01*
X140845000Y-89220198D01*
X134855981Y-95209217D01*
X134751054Y-94681715D01*
X134429147Y-94199946D01*
X134099974Y-93980000D01*
X134429147Y-93760054D01*
X134751054Y-93278285D01*
X134864093Y-92710000D01*
X134751054Y-92141715D01*
X134429147Y-91659946D01*
X134099974Y-91440000D01*
X134429147Y-91220054D01*
X134751054Y-90738285D01*
X134864093Y-90170000D01*
X134751054Y-89601715D01*
X134429147Y-89119946D01*
X134387548Y-89092150D01*
X134435317Y-89083162D01*
X134651441Y-88944090D01*
X134796431Y-88731890D01*
X134847440Y-88480000D01*
X134847440Y-86780000D01*
X134803162Y-86544683D01*
X134664090Y-86328559D01*
X134451890Y-86183569D01*
X134200000Y-86132560D01*
X132500000Y-86132560D01*
X132264683Y-86176838D01*
X132048559Y-86315910D01*
X131903569Y-86528110D01*
X131852560Y-86780000D01*
X131852560Y-88480000D01*
X131896838Y-88715317D01*
X132035910Y-88931441D01*
X132248110Y-89076431D01*
X132315541Y-89090086D01*
X132270853Y-89119946D01*
X131948946Y-89601715D01*
X131835907Y-90170000D01*
X131520000Y-90170000D01*
X131520000Y-85165000D01*
X152325000Y-85165000D01*
X152325000Y-104065000D01*
X152325000Y-104065000D01*
G37*
X152325000Y-104065000D02*
X138542812Y-104065000D01*
X138606431Y-103971890D01*
X138657440Y-103720000D01*
X138657440Y-102020000D01*
X138613162Y-101784683D01*
X138474090Y-101568559D01*
X138261890Y-101423569D01*
X138194459Y-101409914D01*
X138239147Y-101380054D01*
X138561054Y-100898285D01*
X138674093Y-100330000D01*
X138561054Y-99761715D01*
X138239147Y-99279946D01*
X137757378Y-98958039D01*
X137189093Y-98845000D01*
X137130907Y-98845000D01*
X136562622Y-98958039D01*
X136080853Y-99279946D01*
X135758946Y-99761715D01*
X135645907Y-100330000D01*
X135758946Y-100898285D01*
X136080853Y-101380054D01*
X136122452Y-101407850D01*
X136074683Y-101416838D01*
X135858559Y-101555910D01*
X135713569Y-101768110D01*
X135662560Y-102020000D01*
X135662560Y-103720000D01*
X135706838Y-103955317D01*
X135777417Y-104065000D01*
X131520000Y-104065000D01*
X131520000Y-90170000D01*
X131835907Y-90170000D01*
X131948946Y-90738285D01*
X132270853Y-91220054D01*
X132600026Y-91440000D01*
X132270853Y-91659946D01*
X131948946Y-92141715D01*
X131835907Y-92710000D01*
X131948946Y-93278285D01*
X132270853Y-93760054D01*
X132600026Y-93980000D01*
X132270853Y-94199946D01*
X131948946Y-94681715D01*
X131835907Y-95250000D01*
X131948946Y-95818285D01*
X132270853Y-96300054D01*
X132600026Y-96520000D01*
X132270853Y-96739946D01*
X131948946Y-97221715D01*
X131835907Y-97790000D01*
X131948946Y-98358285D01*
X132270853Y-98840054D01*
X132600026Y-99060000D01*
X132270853Y-99279946D01*
X131948946Y-99761715D01*
X131835907Y-100330000D01*
X131948946Y-100898285D01*
X132270853Y-101380054D01*
X132752622Y-101701961D01*
X133320907Y-101815000D01*
X133379093Y-101815000D01*
X133947378Y-101701961D01*
X134429147Y-101380054D01*
X134751054Y-100898285D01*
X134864093Y-100330000D01*
X134751054Y-99761715D01*
X134429147Y-99279946D01*
X134099974Y-99060000D01*
X134429147Y-98840054D01*
X134525727Y-98695510D01*
X139958070Y-98695510D01*
X139958070Y-100694490D01*
X140002348Y-100929807D01*
X140141420Y-101145931D01*
X140353620Y-101290921D01*
X140605510Y-101341930D01*
X142604490Y-101341930D01*
X142839807Y-101297652D01*
X143055931Y-101158580D01*
X143169390Y-100992527D01*
X143487486Y-101205072D01*
X144112978Y-101329490D01*
X144177022Y-101329490D01*
X144802514Y-101205072D01*
X145332781Y-100850759D01*
X145687094Y-100320492D01*
X145811512Y-99695000D01*
X145687094Y-99069508D01*
X145437197Y-98695510D01*
X146308070Y-98695510D01*
X146308070Y-100694490D01*
X146352348Y-100929807D01*
X146491420Y-101145931D01*
X146703620Y-101290921D01*
X146955510Y-101341930D01*
X148954490Y-101341930D01*
X149189807Y-101297652D01*
X149405931Y-101158580D01*
X149519390Y-100992527D01*
X149837486Y-101205072D01*
X150462978Y-101329490D01*
X150527022Y-101329490D01*
X151152514Y-101205072D01*
X151682781Y-100850759D01*
X152037094Y-100320492D01*
X152161512Y-99695000D01*
X152037094Y-99069508D01*
X151682781Y-98539241D01*
X151152514Y-98184928D01*
X150527022Y-98060510D01*
X150462978Y-98060510D01*
X149837486Y-98184928D01*
X149517923Y-98398453D01*
X149418580Y-98244069D01*
X149206380Y-98099079D01*
X148954490Y-98048070D01*
X146955510Y-98048070D01*
X146720193Y-98092348D01*
X146504069Y-98231420D01*
X146359079Y-98443620D01*
X146308070Y-98695510D01*
X145437197Y-98695510D01*
X145332781Y-98539241D01*
X144802514Y-98184928D01*
X144177022Y-98060510D01*
X144112978Y-98060510D01*
X143487486Y-98184928D01*
X143167923Y-98398453D01*
X143068580Y-98244069D01*
X142856380Y-98099079D01*
X142604490Y-98048070D01*
X140605510Y-98048070D01*
X140370193Y-98092348D01*
X140154069Y-98231420D01*
X140009079Y-98443620D01*
X139958070Y-98695510D01*
X134525727Y-98695510D01*
X134751054Y-98358285D01*
X134864093Y-97790000D01*
X134791210Y-97423592D01*
X139504802Y-92710000D01*
X147075907Y-92710000D01*
X147188946Y-93278285D01*
X147510853Y-93760054D01*
X147552452Y-93787850D01*
X147504683Y-93796838D01*
X147288559Y-93935910D01*
X147143569Y-94148110D01*
X147092560Y-94400000D01*
X147092560Y-96100000D01*
X147136838Y-96335317D01*
X147275910Y-96551441D01*
X147488110Y-96696431D01*
X147740000Y-96747440D01*
X149440000Y-96747440D01*
X149675317Y-96703162D01*
X149891441Y-96564090D01*
X150036431Y-96351890D01*
X150087440Y-96100000D01*
X150087440Y-94400000D01*
X150043162Y-94164683D01*
X149904090Y-93948559D01*
X149691890Y-93803569D01*
X149624459Y-93789914D01*
X149669147Y-93760054D01*
X149991054Y-93278285D01*
X150104093Y-92710000D01*
X149991054Y-92141715D01*
X149669147Y-91659946D01*
X149328447Y-91432298D01*
X149471358Y-91365183D01*
X149861645Y-90936924D01*
X150031476Y-90526890D01*
X149910155Y-90297000D01*
X148717000Y-90297000D01*
X148717000Y-90317000D01*
X148463000Y-90317000D01*
X148463000Y-90297000D01*
X147269845Y-90297000D01*
X147148524Y-90526890D01*
X147318355Y-90936924D01*
X147708642Y-91365183D01*
X147851553Y-91432298D01*
X147510853Y-91659946D01*
X147188946Y-92141715D01*
X147075907Y-92710000D01*
X139504802Y-92710000D01*
X142142401Y-90072401D01*
X142307148Y-89825839D01*
X142309679Y-89813110D01*
X147148524Y-89813110D01*
X147269845Y-90043000D01*
X148463000Y-90043000D01*
X148463000Y-88849181D01*
X148717000Y-88849181D01*
X148717000Y-90043000D01*
X149910155Y-90043000D01*
X150031476Y-89813110D01*
X149861645Y-89403076D01*
X149471358Y-88974817D01*
X148946892Y-88728514D01*
X148717000Y-88849181D01*
X148463000Y-88849181D01*
X148233108Y-88728514D01*
X147708642Y-88974817D01*
X147318355Y-89403076D01*
X147148524Y-89813110D01*
X142309679Y-89813110D01*
X142365000Y-89535000D01*
X142365000Y-88827463D01*
X142397192Y-88795327D01*
X142539838Y-88451799D01*
X142540162Y-88079833D01*
X142398117Y-87736057D01*
X142135327Y-87472808D01*
X141791799Y-87330162D01*
X141419833Y-87329838D01*
X141076057Y-87471883D01*
X140812808Y-87734673D01*
X140670162Y-88078201D01*
X140669838Y-88450167D01*
X140811883Y-88793943D01*
X140845000Y-88827118D01*
X140845000Y-89220198D01*
X134855981Y-95209217D01*
X134751054Y-94681715D01*
X134429147Y-94199946D01*
X134099974Y-93980000D01*
X134429147Y-93760054D01*
X134751054Y-93278285D01*
X134864093Y-92710000D01*
X134751054Y-92141715D01*
X134429147Y-91659946D01*
X134099974Y-91440000D01*
X134429147Y-91220054D01*
X134751054Y-90738285D01*
X134864093Y-90170000D01*
X134751054Y-89601715D01*
X134429147Y-89119946D01*
X134387548Y-89092150D01*
X134435317Y-89083162D01*
X134651441Y-88944090D01*
X134796431Y-88731890D01*
X134847440Y-88480000D01*
X134847440Y-86780000D01*
X134803162Y-86544683D01*
X134664090Y-86328559D01*
X134451890Y-86183569D01*
X134200000Y-86132560D01*
X132500000Y-86132560D01*
X132264683Y-86176838D01*
X132048559Y-86315910D01*
X131903569Y-86528110D01*
X131852560Y-86780000D01*
X131852560Y-88480000D01*
X131896838Y-88715317D01*
X132035910Y-88931441D01*
X132248110Y-89076431D01*
X132315541Y-89090086D01*
X132270853Y-89119946D01*
X131948946Y-89601715D01*
X131835907Y-90170000D01*
X131520000Y-90170000D01*
X131520000Y-85165000D01*
X152325000Y-85165000D01*
X152325000Y-104065000D01*
M02*
