G04 #@! TF.FileFunction,Copper,L2,Bot,Signal*
%FSLAX46Y46*%
G04 Gerber Fmt 4.6, Leading zero omitted, Abs format (unit mm)*
G04 Created by KiCad (PCBNEW 4.0.6) date 08/27/17 18:35:28*
%MOMM*%
%LPD*%
G01*
G04 APERTURE LIST*
%ADD10C,0.100000*%
%ADD11R,1.700000X1.700000*%
%ADD12O,1.700000X1.700000*%
%ADD13O,1.998980X1.998980*%
%ADD14R,1.998980X1.998980*%
%ADD15R,1.600000X1.000000*%
%ADD16R,0.750000X0.800000*%
%ADD17R,0.500000X0.900000*%
%ADD18R,0.900000X0.500000*%
%ADD19R,0.600000X1.550000*%
%ADD20R,0.970000X1.270000*%
%ADD21C,1.500000*%
%ADD22C,0.600000*%
%ADD23C,0.250000*%
%ADD24C,0.254000*%
G04 APERTURE END LIST*
D10*
D11*
X133350000Y-87630000D03*
D12*
X133350000Y-90170000D03*
X133350000Y-92710000D03*
X133350000Y-95250000D03*
X133350000Y-97790000D03*
X133350000Y-100330000D03*
D13*
X150495000Y-99695000D03*
D14*
X147955000Y-99695000D03*
D15*
X145415000Y-88670000D03*
X145415000Y-91670000D03*
D16*
X137160000Y-90055000D03*
X137160000Y-91555000D03*
D13*
X144145000Y-99695000D03*
D14*
X141605000Y-99695000D03*
D11*
X148590000Y-95250000D03*
D12*
X148590000Y-92710000D03*
X148590000Y-90170000D03*
D11*
X137160000Y-102870000D03*
D12*
X137160000Y-100330000D03*
D17*
X144895000Y-102235000D03*
X143395000Y-102235000D03*
D18*
X136525000Y-86245000D03*
X136525000Y-87745000D03*
D17*
X135775000Y-93345000D03*
X137275000Y-93345000D03*
X135775000Y-95250000D03*
X137275000Y-95250000D03*
D18*
X145415000Y-85610000D03*
X145415000Y-87110000D03*
D17*
X140220000Y-95250000D03*
X141720000Y-95250000D03*
X140855000Y-93345000D03*
X142355000Y-93345000D03*
D19*
X139065000Y-86200000D03*
X140335000Y-86200000D03*
X141605000Y-86200000D03*
X142875000Y-86200000D03*
X142875000Y-91600000D03*
X141605000Y-91600000D03*
X140335000Y-91600000D03*
X139065000Y-91600000D03*
D20*
X135890000Y-97790000D03*
X137160000Y-97790000D03*
X138430000Y-97790000D03*
D21*
X133350000Y-102870000D03*
D22*
X141605000Y-88265000D03*
D23*
X148590000Y-95250000D02*
X146685000Y-93345000D01*
X146685000Y-90805000D02*
X145415000Y-89535000D01*
X146685000Y-93345000D02*
X146685000Y-90805000D01*
X145415000Y-89535000D02*
X144780000Y-90170000D01*
X145415000Y-88670000D02*
X145415000Y-87110000D01*
X145415000Y-89535000D02*
X145415000Y-88670000D01*
X143510000Y-90170000D02*
X144780000Y-90170000D01*
X139065000Y-91600000D02*
X139065000Y-90170000D01*
X139065000Y-90170000D02*
X143510000Y-90170000D01*
X139065000Y-93345000D02*
X139065000Y-91600000D01*
X140220000Y-94500000D02*
X139065000Y-93345000D01*
X140220000Y-95250000D02*
X140220000Y-94500000D01*
X144780000Y-88900000D02*
X144780000Y-88670000D01*
X137275000Y-93345000D02*
X137275000Y-95250000D01*
X137160000Y-91555000D02*
X137160000Y-93230000D01*
X137160000Y-93230000D02*
X137275000Y-93345000D01*
X135890000Y-90805000D02*
X135890000Y-88380000D01*
X136640000Y-91555000D02*
X135890000Y-90805000D01*
X137160000Y-91555000D02*
X136640000Y-91555000D01*
X135890000Y-88380000D02*
X136525000Y-87745000D01*
X137160000Y-91555000D02*
X139020000Y-91555000D01*
X139020000Y-91555000D02*
X139065000Y-91600000D01*
X139065000Y-91555000D02*
X139065000Y-91600000D01*
X138747500Y-89217500D02*
X142303500Y-89217500D01*
X142748000Y-88773000D02*
X142748000Y-88392000D01*
X142303500Y-89217500D02*
X142748000Y-88773000D01*
X142748000Y-93345000D02*
X143002000Y-93091000D01*
X143002000Y-92710000D02*
X142875000Y-92583000D01*
X143002000Y-93091000D02*
X143002000Y-92710000D01*
X142875000Y-91600000D02*
X142875000Y-92583000D01*
X142355000Y-93345000D02*
X142748000Y-93345000D01*
X147828000Y-97155000D02*
X149987000Y-97155000D01*
X144780000Y-86360000D02*
X142748000Y-88392000D01*
X146685000Y-86360000D02*
X144780000Y-86360000D01*
X150495000Y-96266000D02*
X150495000Y-89535000D01*
X150495000Y-89535000D02*
X148590000Y-87630000D01*
X145415000Y-91670000D02*
X145415000Y-94615000D01*
X147320000Y-86360000D02*
X146685000Y-86360000D01*
X148590000Y-87630000D02*
X147320000Y-86360000D01*
X145415000Y-94742000D02*
X147828000Y-97155000D01*
X145415000Y-94615000D02*
X145415000Y-94742000D01*
X149987000Y-97155000D02*
X150495000Y-96647000D01*
X150495000Y-96647000D02*
X150495000Y-96266000D01*
X138430000Y-89535000D02*
X137910000Y-90055000D01*
X137910000Y-90055000D02*
X137160000Y-90055000D01*
X138430000Y-89535000D02*
X138747500Y-89217500D01*
X142990000Y-91715000D02*
X142875000Y-91600000D01*
X144780000Y-91670000D02*
X142945000Y-91670000D01*
X142945000Y-91670000D02*
X142875000Y-91600000D01*
X140081000Y-93091000D02*
X140335000Y-93345000D01*
X140335000Y-93345000D02*
X140208000Y-93345000D01*
X140855000Y-93345000D02*
X140208000Y-93345000D01*
X140335000Y-92456000D02*
X140335000Y-91600000D01*
X140081000Y-92710000D02*
X140335000Y-92456000D01*
X140081000Y-93091000D02*
X140081000Y-92710000D01*
X139700000Y-100330000D02*
X139700000Y-100965000D01*
X140335000Y-101600000D02*
X140970000Y-101600000D01*
X139700000Y-100965000D02*
X140335000Y-101600000D01*
X143510000Y-100965000D02*
X143059998Y-100965000D01*
X144145000Y-100965000D02*
X143510000Y-100965000D01*
X143059998Y-100965000D02*
X142424998Y-101600000D01*
X142424998Y-101600000D02*
X140970000Y-101600000D01*
X146685000Y-103505000D02*
X147320000Y-103505000D01*
X147320000Y-103505000D02*
X150495000Y-100330000D01*
X150495000Y-100330000D02*
X150495000Y-99695000D01*
X144145000Y-100965000D02*
X144145000Y-99695000D01*
X139700000Y-100330000D02*
X139700000Y-99695000D01*
X144145000Y-100965000D02*
X144145000Y-103505000D01*
X137160000Y-102870000D02*
X138430000Y-102870000D01*
X139065000Y-103505000D02*
X144145000Y-103505000D01*
X144145000Y-103505000D02*
X146685000Y-103505000D01*
X138430000Y-102870000D02*
X139065000Y-103505000D01*
X139700000Y-99695000D02*
X139700000Y-99060000D01*
X139700000Y-97790000D02*
X139700000Y-97155000D01*
X140855000Y-93345000D02*
X140855000Y-93865000D01*
X140970000Y-93980000D02*
X140970000Y-95885000D01*
X140855000Y-93865000D02*
X140970000Y-93980000D01*
X139700000Y-97790000D02*
X139700000Y-99060000D01*
X139700000Y-97155000D02*
X140970000Y-95885000D01*
X147955000Y-99695000D02*
X147955000Y-98552000D01*
X147955000Y-98552000D02*
X146240500Y-96837500D01*
X144895000Y-102235000D02*
X146685000Y-102235000D01*
X146685000Y-102235000D02*
X147955000Y-100965000D01*
X147955000Y-100965000D02*
X147955000Y-99695000D01*
X141605000Y-99695000D02*
X141605000Y-98425000D01*
X141605000Y-98425000D02*
X143192500Y-96837500D01*
X143192500Y-96837500D02*
X146240500Y-96837500D01*
X141720000Y-95250000D02*
X141720000Y-95365000D01*
X141720000Y-95365000D02*
X143192500Y-96837500D01*
X141605000Y-91600000D02*
X141605000Y-94615000D01*
X141720000Y-94730000D02*
X141720000Y-95250000D01*
X141605000Y-94615000D02*
X141720000Y-94730000D01*
X141720000Y-95365000D02*
X141605000Y-95250000D01*
X142875000Y-86200000D02*
X142875000Y-85725000D01*
X142875000Y-85725000D02*
X142240000Y-85090000D01*
X133350000Y-85725000D02*
X133350000Y-87630000D01*
X133985000Y-85090000D02*
X133350000Y-85725000D01*
X142240000Y-85090000D02*
X133985000Y-85090000D01*
X142875000Y-86200000D02*
X143670000Y-86200000D01*
X144780000Y-85610000D02*
X144260000Y-85610000D01*
X145415000Y-85610000D02*
X144780000Y-85610000D01*
X143670000Y-86200000D02*
X144260000Y-85610000D01*
X142875000Y-86200000D02*
X142875000Y-86245000D01*
X136525000Y-86245000D02*
X139020000Y-86245000D01*
X139020000Y-86245000D02*
X139065000Y-86200000D01*
X133350000Y-90170000D02*
X134620000Y-88900000D01*
X135255000Y-86360000D02*
X136410000Y-86360000D01*
X134620000Y-86995000D02*
X135255000Y-86360000D01*
X134620000Y-88900000D02*
X134620000Y-86995000D01*
X136410000Y-86360000D02*
X136525000Y-86245000D01*
X138905000Y-86360000D02*
X139065000Y-86200000D01*
X140335000Y-102235000D02*
X139700000Y-102235000D01*
X139065000Y-100965000D02*
X138430000Y-100330000D01*
X139065000Y-101600000D02*
X139065000Y-100965000D01*
X139700000Y-102235000D02*
X139065000Y-101600000D01*
X137160000Y-100330000D02*
X138430000Y-100330000D01*
X140335000Y-102235000D02*
X143395000Y-102235000D01*
X137160000Y-86995000D02*
X137795000Y-87630000D01*
X135775000Y-91960000D02*
X135255000Y-91440000D01*
X135255000Y-91440000D02*
X135255000Y-87630000D01*
X135255000Y-87630000D02*
X135890000Y-86995000D01*
X135890000Y-86995000D02*
X137160000Y-86995000D01*
X135775000Y-93345000D02*
X135775000Y-91960000D01*
X139700000Y-87630000D02*
X140335000Y-86995000D01*
X137795000Y-87630000D02*
X139700000Y-87630000D01*
X137160000Y-97790000D02*
X137160000Y-96520000D01*
X136525000Y-94095000D02*
X135775000Y-93345000D01*
X136525000Y-95885000D02*
X136525000Y-94095000D01*
X137160000Y-96520000D02*
X136525000Y-95885000D01*
X140335000Y-86995000D02*
X140335000Y-86200000D01*
X140335000Y-86995000D02*
X140335000Y-86200000D01*
X135775000Y-95250000D02*
X135128000Y-95250000D01*
X135001000Y-95377000D02*
X135001000Y-96139000D01*
X135128000Y-95250000D02*
X135001000Y-95377000D01*
X141605000Y-87814998D02*
X141605000Y-88265000D01*
X141605000Y-86200000D02*
X141605000Y-87814998D01*
X135890000Y-97790000D02*
X133350000Y-97790000D01*
X135001000Y-96139000D02*
X133350000Y-97790000D01*
X141605000Y-86200000D02*
X141605000Y-85725000D01*
X135255000Y-95250000D02*
X135775000Y-95250000D01*
X135775000Y-95250000D02*
X135890000Y-95250000D01*
X135775000Y-97675000D02*
X135890000Y-97790000D01*
X135775000Y-95250000D02*
X135255000Y-95250000D01*
X133350000Y-100330000D02*
X134620000Y-100330000D01*
X134620000Y-100330000D02*
X135255000Y-99695000D01*
X135255000Y-99695000D02*
X135890000Y-99060000D01*
X135890000Y-99060000D02*
X137795000Y-99060000D01*
X137795000Y-99060000D02*
X138430000Y-98425000D01*
X138430000Y-98425000D02*
X138430000Y-97790000D01*
X133350000Y-95250000D02*
X132080000Y-96520000D01*
X132080000Y-101600000D02*
X133350000Y-102870000D01*
X132080000Y-96520000D02*
X132080000Y-101600000D01*
D24*
G36*
X138130000Y-91314250D02*
X138288750Y-91473000D01*
X138938000Y-91473000D01*
X138938000Y-91453000D01*
X139192000Y-91453000D01*
X139192000Y-91473000D01*
X139212000Y-91473000D01*
X139212000Y-91727000D01*
X139192000Y-91727000D01*
X139192000Y-92851250D01*
X139321000Y-92980250D01*
X139321000Y-93091000D01*
X139378852Y-93381839D01*
X139487745Y-93544809D01*
X139505852Y-93635839D01*
X139670599Y-93882401D01*
X139917161Y-94047148D01*
X140026688Y-94068934D01*
X140092998Y-94171983D01*
X140092998Y-94321748D01*
X139936250Y-94165000D01*
X139843691Y-94165000D01*
X139610302Y-94261673D01*
X139431673Y-94440301D01*
X139335000Y-94673690D01*
X139335000Y-94964250D01*
X139493750Y-95123000D01*
X140095000Y-95123000D01*
X140095000Y-95103000D01*
X140210000Y-95103000D01*
X140210000Y-95397000D01*
X140095000Y-95397000D01*
X140095000Y-95377000D01*
X139493750Y-95377000D01*
X139335000Y-95535750D01*
X139335000Y-95826310D01*
X139431673Y-96059699D01*
X139576086Y-96204112D01*
X139199409Y-96580789D01*
X139166890Y-96558569D01*
X138915000Y-96507560D01*
X137945000Y-96507560D01*
X137918517Y-96512543D01*
X137865549Y-96246259D01*
X137884698Y-96238327D01*
X138063327Y-96059699D01*
X138160000Y-95826310D01*
X138160000Y-95535750D01*
X138001250Y-95377000D01*
X137400000Y-95377000D01*
X137400000Y-95397000D01*
X137285000Y-95397000D01*
X137285000Y-95103000D01*
X137400000Y-95103000D01*
X137400000Y-95123000D01*
X138001250Y-95123000D01*
X138160000Y-94964250D01*
X138160000Y-94673690D01*
X138063327Y-94440301D01*
X137920525Y-94297500D01*
X138063327Y-94154699D01*
X138160000Y-93921310D01*
X138160000Y-93630750D01*
X138001250Y-93472000D01*
X137400000Y-93472000D01*
X137400000Y-93492000D01*
X137150000Y-93492000D01*
X137150000Y-93472000D01*
X137128000Y-93472000D01*
X137128000Y-93218000D01*
X137150000Y-93218000D01*
X137150000Y-92418750D01*
X137033000Y-92301750D01*
X137033000Y-91682000D01*
X137287000Y-91682000D01*
X137287000Y-92431250D01*
X137400000Y-92544250D01*
X137400000Y-93218000D01*
X138001250Y-93218000D01*
X138160000Y-93059250D01*
X138160000Y-92768690D01*
X138063327Y-92535301D01*
X137958026Y-92430000D01*
X138073327Y-92314698D01*
X138130000Y-92177877D01*
X138130000Y-92501309D01*
X138226673Y-92734698D01*
X138405301Y-92913327D01*
X138638690Y-93010000D01*
X138779250Y-93010000D01*
X138938000Y-92851250D01*
X138938000Y-91727000D01*
X138288750Y-91727000D01*
X138170000Y-91845750D01*
X138170000Y-91840750D01*
X138011250Y-91682000D01*
X137287000Y-91682000D01*
X137033000Y-91682000D01*
X137013000Y-91682000D01*
X137013000Y-91428000D01*
X137033000Y-91428000D01*
X137033000Y-91408000D01*
X137287000Y-91408000D01*
X137287000Y-91428000D01*
X138011250Y-91428000D01*
X138130000Y-91309250D01*
X138130000Y-91314250D01*
X138130000Y-91314250D01*
G37*
X138130000Y-91314250D02*
X138288750Y-91473000D01*
X138938000Y-91473000D01*
X138938000Y-91453000D01*
X139192000Y-91453000D01*
X139192000Y-91473000D01*
X139212000Y-91473000D01*
X139212000Y-91727000D01*
X139192000Y-91727000D01*
X139192000Y-92851250D01*
X139321000Y-92980250D01*
X139321000Y-93091000D01*
X139378852Y-93381839D01*
X139487745Y-93544809D01*
X139505852Y-93635839D01*
X139670599Y-93882401D01*
X139917161Y-94047148D01*
X140026688Y-94068934D01*
X140092998Y-94171983D01*
X140092998Y-94321748D01*
X139936250Y-94165000D01*
X139843691Y-94165000D01*
X139610302Y-94261673D01*
X139431673Y-94440301D01*
X139335000Y-94673690D01*
X139335000Y-94964250D01*
X139493750Y-95123000D01*
X140095000Y-95123000D01*
X140095000Y-95103000D01*
X140210000Y-95103000D01*
X140210000Y-95397000D01*
X140095000Y-95397000D01*
X140095000Y-95377000D01*
X139493750Y-95377000D01*
X139335000Y-95535750D01*
X139335000Y-95826310D01*
X139431673Y-96059699D01*
X139576086Y-96204112D01*
X139199409Y-96580789D01*
X139166890Y-96558569D01*
X138915000Y-96507560D01*
X137945000Y-96507560D01*
X137918517Y-96512543D01*
X137865549Y-96246259D01*
X137884698Y-96238327D01*
X138063327Y-96059699D01*
X138160000Y-95826310D01*
X138160000Y-95535750D01*
X138001250Y-95377000D01*
X137400000Y-95377000D01*
X137400000Y-95397000D01*
X137285000Y-95397000D01*
X137285000Y-95103000D01*
X137400000Y-95103000D01*
X137400000Y-95123000D01*
X138001250Y-95123000D01*
X138160000Y-94964250D01*
X138160000Y-94673690D01*
X138063327Y-94440301D01*
X137920525Y-94297500D01*
X138063327Y-94154699D01*
X138160000Y-93921310D01*
X138160000Y-93630750D01*
X138001250Y-93472000D01*
X137400000Y-93472000D01*
X137400000Y-93492000D01*
X137150000Y-93492000D01*
X137150000Y-93472000D01*
X137128000Y-93472000D01*
X137128000Y-93218000D01*
X137150000Y-93218000D01*
X137150000Y-92418750D01*
X137033000Y-92301750D01*
X137033000Y-91682000D01*
X137287000Y-91682000D01*
X137287000Y-92431250D01*
X137400000Y-92544250D01*
X137400000Y-93218000D01*
X138001250Y-93218000D01*
X138160000Y-93059250D01*
X138160000Y-92768690D01*
X138063327Y-92535301D01*
X137958026Y-92430000D01*
X138073327Y-92314698D01*
X138130000Y-92177877D01*
X138130000Y-92501309D01*
X138226673Y-92734698D01*
X138405301Y-92913327D01*
X138638690Y-93010000D01*
X138779250Y-93010000D01*
X138938000Y-92851250D01*
X138938000Y-91727000D01*
X138288750Y-91727000D01*
X138170000Y-91845750D01*
X138170000Y-91840750D01*
X138011250Y-91682000D01*
X137287000Y-91682000D01*
X137033000Y-91682000D01*
X137013000Y-91682000D01*
X137013000Y-91428000D01*
X137033000Y-91428000D01*
X137033000Y-91408000D01*
X137287000Y-91408000D01*
X137287000Y-91428000D01*
X138011250Y-91428000D01*
X138130000Y-91309250D01*
X138130000Y-91314250D01*
G36*
X152325000Y-104065000D02*
X147823579Y-104065000D01*
X147857401Y-104042401D01*
X150581061Y-101318741D01*
X151152514Y-101205072D01*
X151682781Y-100850759D01*
X152037094Y-100320492D01*
X152161512Y-99695000D01*
X152037094Y-99069508D01*
X151682781Y-98539241D01*
X151152514Y-98184928D01*
X150527022Y-98060510D01*
X150462978Y-98060510D01*
X149837486Y-98184928D01*
X149517923Y-98398453D01*
X149418580Y-98244069D01*
X149206380Y-98099079D01*
X148954490Y-98048070D01*
X148514766Y-98048070D01*
X148492401Y-98014599D01*
X146777901Y-96300099D01*
X146531339Y-96135352D01*
X146240500Y-96077500D01*
X143507302Y-96077500D01*
X142617440Y-95187638D01*
X142617440Y-94800000D01*
X142573162Y-94564683D01*
X142482002Y-94423016D01*
X142482002Y-94273252D01*
X142638750Y-94430000D01*
X142731309Y-94430000D01*
X142964698Y-94333327D01*
X143143327Y-94154699D01*
X143240000Y-93921310D01*
X143240000Y-93630750D01*
X143081250Y-93472000D01*
X142480000Y-93472000D01*
X142480000Y-93492000D01*
X142367000Y-93492000D01*
X142367000Y-93198000D01*
X142480000Y-93198000D01*
X142480000Y-93218000D01*
X143081250Y-93218000D01*
X143240000Y-93059250D01*
X143240000Y-93010000D01*
X143301310Y-93010000D01*
X143534699Y-92913327D01*
X143713327Y-92734698D01*
X143810000Y-92501309D01*
X143810000Y-91955750D01*
X143980000Y-91955750D01*
X143980000Y-92296309D01*
X144076673Y-92529698D01*
X144255301Y-92708327D01*
X144488690Y-92805000D01*
X145129250Y-92805000D01*
X145288000Y-92646250D01*
X145288000Y-91797000D01*
X144138750Y-91797000D01*
X143980000Y-91955750D01*
X143810000Y-91955750D01*
X143810000Y-91885750D01*
X143651250Y-91727000D01*
X143002000Y-91727000D01*
X143002000Y-91747000D01*
X142748000Y-91747000D01*
X142748000Y-91727000D01*
X142728000Y-91727000D01*
X142728000Y-91473000D01*
X142748000Y-91473000D01*
X142748000Y-91453000D01*
X143002000Y-91453000D01*
X143002000Y-91473000D01*
X143651250Y-91473000D01*
X143810000Y-91314250D01*
X143810000Y-90930000D01*
X144027092Y-90930000D01*
X143980000Y-91043691D01*
X143980000Y-91384250D01*
X144138750Y-91543000D01*
X145288000Y-91543000D01*
X145288000Y-91523000D01*
X145542000Y-91523000D01*
X145542000Y-91543000D01*
X145562000Y-91543000D01*
X145562000Y-91797000D01*
X145542000Y-91797000D01*
X145542000Y-92646250D01*
X145700750Y-92805000D01*
X145925000Y-92805000D01*
X145925000Y-93345000D01*
X145982852Y-93635839D01*
X146147599Y-93882401D01*
X147092560Y-94827362D01*
X147092560Y-96100000D01*
X147136838Y-96335317D01*
X147275910Y-96551441D01*
X147488110Y-96696431D01*
X147740000Y-96747440D01*
X149440000Y-96747440D01*
X149675317Y-96703162D01*
X149891441Y-96564090D01*
X150036431Y-96351890D01*
X150087440Y-96100000D01*
X150087440Y-94400000D01*
X150043162Y-94164683D01*
X149904090Y-93948559D01*
X149691890Y-93803569D01*
X149624459Y-93789914D01*
X149669147Y-93760054D01*
X149991054Y-93278285D01*
X150104093Y-92710000D01*
X149991054Y-92141715D01*
X149669147Y-91659946D01*
X149328447Y-91432298D01*
X149471358Y-91365183D01*
X149861645Y-90936924D01*
X150031476Y-90526890D01*
X149910155Y-90297000D01*
X148717000Y-90297000D01*
X148717000Y-90317000D01*
X148463000Y-90317000D01*
X148463000Y-90297000D01*
X148443000Y-90297000D01*
X148443000Y-90043000D01*
X148463000Y-90043000D01*
X148463000Y-88849181D01*
X148717000Y-88849181D01*
X148717000Y-90043000D01*
X149910155Y-90043000D01*
X150031476Y-89813110D01*
X149861645Y-89403076D01*
X149471358Y-88974817D01*
X148946892Y-88728514D01*
X148717000Y-88849181D01*
X148463000Y-88849181D01*
X148233108Y-88728514D01*
X147708642Y-88974817D01*
X147318355Y-89403076D01*
X147148524Y-89813110D01*
X147269844Y-90042998D01*
X147105000Y-90042998D01*
X147105000Y-90150198D01*
X146619255Y-89664453D01*
X146666441Y-89634090D01*
X146811431Y-89421890D01*
X146862440Y-89170000D01*
X146862440Y-88170000D01*
X146818162Y-87934683D01*
X146679090Y-87718559D01*
X146468911Y-87574950D01*
X146512440Y-87360000D01*
X146512440Y-86860000D01*
X146468162Y-86624683D01*
X146329090Y-86408559D01*
X146259289Y-86360866D01*
X146316441Y-86324090D01*
X146461431Y-86111890D01*
X146512440Y-85860000D01*
X146512440Y-85360000D01*
X146475748Y-85165000D01*
X152325000Y-85165000D01*
X152325000Y-104065000D01*
X152325000Y-104065000D01*
G37*
X152325000Y-104065000D02*
X147823579Y-104065000D01*
X147857401Y-104042401D01*
X150581061Y-101318741D01*
X151152514Y-101205072D01*
X151682781Y-100850759D01*
X152037094Y-100320492D01*
X152161512Y-99695000D01*
X152037094Y-99069508D01*
X151682781Y-98539241D01*
X151152514Y-98184928D01*
X150527022Y-98060510D01*
X150462978Y-98060510D01*
X149837486Y-98184928D01*
X149517923Y-98398453D01*
X149418580Y-98244069D01*
X149206380Y-98099079D01*
X148954490Y-98048070D01*
X148514766Y-98048070D01*
X148492401Y-98014599D01*
X146777901Y-96300099D01*
X146531339Y-96135352D01*
X146240500Y-96077500D01*
X143507302Y-96077500D01*
X142617440Y-95187638D01*
X142617440Y-94800000D01*
X142573162Y-94564683D01*
X142482002Y-94423016D01*
X142482002Y-94273252D01*
X142638750Y-94430000D01*
X142731309Y-94430000D01*
X142964698Y-94333327D01*
X143143327Y-94154699D01*
X143240000Y-93921310D01*
X143240000Y-93630750D01*
X143081250Y-93472000D01*
X142480000Y-93472000D01*
X142480000Y-93492000D01*
X142367000Y-93492000D01*
X142367000Y-93198000D01*
X142480000Y-93198000D01*
X142480000Y-93218000D01*
X143081250Y-93218000D01*
X143240000Y-93059250D01*
X143240000Y-93010000D01*
X143301310Y-93010000D01*
X143534699Y-92913327D01*
X143713327Y-92734698D01*
X143810000Y-92501309D01*
X143810000Y-91955750D01*
X143980000Y-91955750D01*
X143980000Y-92296309D01*
X144076673Y-92529698D01*
X144255301Y-92708327D01*
X144488690Y-92805000D01*
X145129250Y-92805000D01*
X145288000Y-92646250D01*
X145288000Y-91797000D01*
X144138750Y-91797000D01*
X143980000Y-91955750D01*
X143810000Y-91955750D01*
X143810000Y-91885750D01*
X143651250Y-91727000D01*
X143002000Y-91727000D01*
X143002000Y-91747000D01*
X142748000Y-91747000D01*
X142748000Y-91727000D01*
X142728000Y-91727000D01*
X142728000Y-91473000D01*
X142748000Y-91473000D01*
X142748000Y-91453000D01*
X143002000Y-91453000D01*
X143002000Y-91473000D01*
X143651250Y-91473000D01*
X143810000Y-91314250D01*
X143810000Y-90930000D01*
X144027092Y-90930000D01*
X143980000Y-91043691D01*
X143980000Y-91384250D01*
X144138750Y-91543000D01*
X145288000Y-91543000D01*
X145288000Y-91523000D01*
X145542000Y-91523000D01*
X145542000Y-91543000D01*
X145562000Y-91543000D01*
X145562000Y-91797000D01*
X145542000Y-91797000D01*
X145542000Y-92646250D01*
X145700750Y-92805000D01*
X145925000Y-92805000D01*
X145925000Y-93345000D01*
X145982852Y-93635839D01*
X146147599Y-93882401D01*
X147092560Y-94827362D01*
X147092560Y-96100000D01*
X147136838Y-96335317D01*
X147275910Y-96551441D01*
X147488110Y-96696431D01*
X147740000Y-96747440D01*
X149440000Y-96747440D01*
X149675317Y-96703162D01*
X149891441Y-96564090D01*
X150036431Y-96351890D01*
X150087440Y-96100000D01*
X150087440Y-94400000D01*
X150043162Y-94164683D01*
X149904090Y-93948559D01*
X149691890Y-93803569D01*
X149624459Y-93789914D01*
X149669147Y-93760054D01*
X149991054Y-93278285D01*
X150104093Y-92710000D01*
X149991054Y-92141715D01*
X149669147Y-91659946D01*
X149328447Y-91432298D01*
X149471358Y-91365183D01*
X149861645Y-90936924D01*
X150031476Y-90526890D01*
X149910155Y-90297000D01*
X148717000Y-90297000D01*
X148717000Y-90317000D01*
X148463000Y-90317000D01*
X148463000Y-90297000D01*
X148443000Y-90297000D01*
X148443000Y-90043000D01*
X148463000Y-90043000D01*
X148463000Y-88849181D01*
X148717000Y-88849181D01*
X148717000Y-90043000D01*
X149910155Y-90043000D01*
X150031476Y-89813110D01*
X149861645Y-89403076D01*
X149471358Y-88974817D01*
X148946892Y-88728514D01*
X148717000Y-88849181D01*
X148463000Y-88849181D01*
X148233108Y-88728514D01*
X147708642Y-88974817D01*
X147318355Y-89403076D01*
X147148524Y-89813110D01*
X147269844Y-90042998D01*
X147105000Y-90042998D01*
X147105000Y-90150198D01*
X146619255Y-89664453D01*
X146666441Y-89634090D01*
X146811431Y-89421890D01*
X146862440Y-89170000D01*
X146862440Y-88170000D01*
X146818162Y-87934683D01*
X146679090Y-87718559D01*
X146468911Y-87574950D01*
X146512440Y-87360000D01*
X146512440Y-86860000D01*
X146468162Y-86624683D01*
X146329090Y-86408559D01*
X146259289Y-86360866D01*
X146316441Y-86324090D01*
X146461431Y-86111890D01*
X146512440Y-85860000D01*
X146512440Y-85360000D01*
X146475748Y-85165000D01*
X152325000Y-85165000D01*
X152325000Y-104065000D01*
G36*
X144368569Y-86608110D02*
X144317560Y-86860000D01*
X144317560Y-87360000D01*
X144358985Y-87580157D01*
X144163559Y-87705910D01*
X144018569Y-87918110D01*
X143967560Y-88170000D01*
X143967560Y-89170000D01*
X144011838Y-89405317D01*
X144014851Y-89410000D01*
X139065000Y-89410000D01*
X138774161Y-89467852D01*
X138527599Y-89632599D01*
X138362852Y-89879161D01*
X138330262Y-90043000D01*
X138170000Y-90043000D01*
X138170000Y-89927998D01*
X138011252Y-89927998D01*
X138170000Y-89769250D01*
X138170000Y-89528691D01*
X138073327Y-89295302D01*
X137894699Y-89116673D01*
X137661310Y-89020000D01*
X137445750Y-89020000D01*
X137287000Y-89178750D01*
X137287000Y-89928000D01*
X137307000Y-89928000D01*
X137307000Y-90043000D01*
X137013000Y-90043000D01*
X137013000Y-89928000D01*
X137033000Y-89928000D01*
X137033000Y-89178750D01*
X136874250Y-89020000D01*
X136658690Y-89020000D01*
X136652000Y-89022771D01*
X136652000Y-88900000D01*
X136650000Y-88890124D01*
X136650000Y-88694802D01*
X136702362Y-88642440D01*
X136975000Y-88642440D01*
X137210317Y-88598162D01*
X137426441Y-88459090D01*
X137512098Y-88333727D01*
X137795000Y-88390000D01*
X139700000Y-88390000D01*
X139990839Y-88332148D01*
X140237401Y-88167401D01*
X140816517Y-87588285D01*
X140845000Y-87582926D01*
X140845000Y-87702537D01*
X140812808Y-87734673D01*
X140670162Y-88078201D01*
X140669838Y-88450167D01*
X140811883Y-88793943D01*
X141074673Y-89057192D01*
X141418201Y-89199838D01*
X141790167Y-89200162D01*
X142133943Y-89058117D01*
X142397192Y-88795327D01*
X142539838Y-88451799D01*
X142540162Y-88079833D01*
X142398117Y-87736057D01*
X142365000Y-87702882D01*
X142365000Y-87579914D01*
X142575000Y-87622440D01*
X143175000Y-87622440D01*
X143410317Y-87578162D01*
X143626441Y-87439090D01*
X143771431Y-87226890D01*
X143822440Y-86975000D01*
X143822440Y-86929678D01*
X143960839Y-86902148D01*
X144207401Y-86737401D01*
X144437336Y-86507466D01*
X144368569Y-86608110D01*
X144368569Y-86608110D01*
G37*
X144368569Y-86608110D02*
X144317560Y-86860000D01*
X144317560Y-87360000D01*
X144358985Y-87580157D01*
X144163559Y-87705910D01*
X144018569Y-87918110D01*
X143967560Y-88170000D01*
X143967560Y-89170000D01*
X144011838Y-89405317D01*
X144014851Y-89410000D01*
X139065000Y-89410000D01*
X138774161Y-89467852D01*
X138527599Y-89632599D01*
X138362852Y-89879161D01*
X138330262Y-90043000D01*
X138170000Y-90043000D01*
X138170000Y-89927998D01*
X138011252Y-89927998D01*
X138170000Y-89769250D01*
X138170000Y-89528691D01*
X138073327Y-89295302D01*
X137894699Y-89116673D01*
X137661310Y-89020000D01*
X137445750Y-89020000D01*
X137287000Y-89178750D01*
X137287000Y-89928000D01*
X137307000Y-89928000D01*
X137307000Y-90043000D01*
X137013000Y-90043000D01*
X137013000Y-89928000D01*
X137033000Y-89928000D01*
X137033000Y-89178750D01*
X136874250Y-89020000D01*
X136658690Y-89020000D01*
X136652000Y-89022771D01*
X136652000Y-88900000D01*
X136650000Y-88890124D01*
X136650000Y-88694802D01*
X136702362Y-88642440D01*
X136975000Y-88642440D01*
X137210317Y-88598162D01*
X137426441Y-88459090D01*
X137512098Y-88333727D01*
X137795000Y-88390000D01*
X139700000Y-88390000D01*
X139990839Y-88332148D01*
X140237401Y-88167401D01*
X140816517Y-87588285D01*
X140845000Y-87582926D01*
X140845000Y-87702537D01*
X140812808Y-87734673D01*
X140670162Y-88078201D01*
X140669838Y-88450167D01*
X140811883Y-88793943D01*
X141074673Y-89057192D01*
X141418201Y-89199838D01*
X141790167Y-89200162D01*
X142133943Y-89058117D01*
X142397192Y-88795327D01*
X142539838Y-88451799D01*
X142540162Y-88079833D01*
X142398117Y-87736057D01*
X142365000Y-87702882D01*
X142365000Y-87579914D01*
X142575000Y-87622440D01*
X143175000Y-87622440D01*
X143410317Y-87578162D01*
X143626441Y-87439090D01*
X143771431Y-87226890D01*
X143822440Y-86975000D01*
X143822440Y-86929678D01*
X143960839Y-86902148D01*
X144207401Y-86737401D01*
X144437336Y-86507466D01*
X144368569Y-86608110D01*
M02*
