G04 #@! TF.FileFunction,Legend,Top*
%FSLAX46Y46*%
G04 Gerber Fmt 4.6, Leading zero omitted, Abs format (unit mm)*
G04 Created by KiCad (PCBNEW 4.0.6) date 08/27/17 18:35:28*
%MOMM*%
%LPD*%
G01*
G04 APERTURE LIST*
%ADD10C,0.100000*%
%ADD11C,0.300000*%
%ADD12C,0.150000*%
%ADD13C,0.120000*%
%ADD14R,2.100000X2.100000*%
%ADD15O,2.100000X2.100000*%
%ADD16O,2.398980X2.398980*%
%ADD17R,2.398980X2.398980*%
G04 APERTURE END LIST*
D10*
D11*
X134624286Y-96968571D02*
X135481429Y-96968571D01*
X135052858Y-98468571D02*
X135052858Y-96968571D01*
X136552857Y-98397143D02*
X136410000Y-98468571D01*
X136124286Y-98468571D01*
X135981429Y-98397143D01*
X135910000Y-98254286D01*
X135910000Y-97682857D01*
X135981429Y-97540000D01*
X136124286Y-97468571D01*
X136410000Y-97468571D01*
X136552857Y-97540000D01*
X136624286Y-97682857D01*
X136624286Y-97825714D01*
X135910000Y-97968571D01*
X137267143Y-98468571D02*
X137267143Y-97468571D01*
X137267143Y-97754286D02*
X137338571Y-97611429D01*
X137410000Y-97540000D01*
X137552857Y-97468571D01*
X137695714Y-97468571D01*
X138195714Y-98468571D02*
X138195714Y-97468571D01*
X138195714Y-97611429D02*
X138267142Y-97540000D01*
X138410000Y-97468571D01*
X138624285Y-97468571D01*
X138767142Y-97540000D01*
X138838571Y-97682857D01*
X138838571Y-98468571D01*
X138838571Y-97682857D02*
X138910000Y-97540000D01*
X139052857Y-97468571D01*
X139267142Y-97468571D01*
X139410000Y-97540000D01*
X139481428Y-97682857D01*
X139481428Y-98468571D01*
X138577144Y-87023571D02*
X138077144Y-86309286D01*
X137720001Y-87023571D02*
X137720001Y-85523571D01*
X138291429Y-85523571D01*
X138434287Y-85595000D01*
X138505715Y-85666429D01*
X138577144Y-85809286D01*
X138577144Y-86023571D01*
X138505715Y-86166429D01*
X138434287Y-86237857D01*
X138291429Y-86309286D01*
X137720001Y-86309286D01*
X139148572Y-86952143D02*
X139362858Y-87023571D01*
X139720001Y-87023571D01*
X139862858Y-86952143D01*
X139934287Y-86880714D01*
X140005715Y-86737857D01*
X140005715Y-86595000D01*
X139934287Y-86452143D01*
X139862858Y-86380714D01*
X139720001Y-86309286D01*
X139434287Y-86237857D01*
X139291429Y-86166429D01*
X139220001Y-86095000D01*
X139148572Y-85952143D01*
X139148572Y-85809286D01*
X139220001Y-85666429D01*
X139291429Y-85595000D01*
X139434287Y-85523571D01*
X139791429Y-85523571D01*
X140005715Y-85595000D01*
X141291429Y-86023571D02*
X141291429Y-87023571D01*
X140934286Y-85452143D02*
X140577143Y-86523571D01*
X141505715Y-86523571D01*
X142291429Y-86166429D02*
X142148571Y-86095000D01*
X142077143Y-86023571D01*
X142005714Y-85880714D01*
X142005714Y-85809286D01*
X142077143Y-85666429D01*
X142148571Y-85595000D01*
X142291429Y-85523571D01*
X142577143Y-85523571D01*
X142720000Y-85595000D01*
X142791429Y-85666429D01*
X142862857Y-85809286D01*
X142862857Y-85880714D01*
X142791429Y-86023571D01*
X142720000Y-86095000D01*
X142577143Y-86166429D01*
X142291429Y-86166429D01*
X142148571Y-86237857D01*
X142077143Y-86309286D01*
X142005714Y-86452143D01*
X142005714Y-86737857D01*
X142077143Y-86880714D01*
X142148571Y-86952143D01*
X142291429Y-87023571D01*
X142577143Y-87023571D01*
X142720000Y-86952143D01*
X142791429Y-86880714D01*
X142862857Y-86737857D01*
X142862857Y-86452143D01*
X142791429Y-86309286D01*
X142720000Y-86237857D01*
X142577143Y-86166429D01*
X144220000Y-85523571D02*
X143505714Y-85523571D01*
X143434285Y-86237857D01*
X143505714Y-86166429D01*
X143648571Y-86095000D01*
X144005714Y-86095000D01*
X144148571Y-86166429D01*
X144220000Y-86237857D01*
X144291428Y-86380714D01*
X144291428Y-86737857D01*
X144220000Y-86880714D01*
X144148571Y-86952143D01*
X144005714Y-87023571D01*
X143648571Y-87023571D01*
X143505714Y-86952143D01*
X143434285Y-86880714D01*
X137077143Y-89145000D02*
X137791429Y-89145000D01*
X136934286Y-89573571D02*
X137434286Y-88073571D01*
X137934286Y-89573571D01*
X138434286Y-89573571D02*
X138434286Y-88573571D01*
X138434286Y-88859286D02*
X138505714Y-88716429D01*
X138577143Y-88645000D01*
X138720000Y-88573571D01*
X138862857Y-88573571D01*
X140005714Y-89573571D02*
X140005714Y-88073571D01*
X140005714Y-89502143D02*
X139862857Y-89573571D01*
X139577143Y-89573571D01*
X139434285Y-89502143D01*
X139362857Y-89430714D01*
X139291428Y-89287857D01*
X139291428Y-88859286D01*
X139362857Y-88716429D01*
X139434285Y-88645000D01*
X139577143Y-88573571D01*
X139862857Y-88573571D01*
X140005714Y-88645000D01*
X141362857Y-88573571D02*
X141362857Y-89573571D01*
X140720000Y-88573571D02*
X140720000Y-89359286D01*
X140791428Y-89502143D01*
X140934286Y-89573571D01*
X141148571Y-89573571D01*
X141291428Y-89502143D01*
X141362857Y-89430714D01*
X142077143Y-89573571D02*
X142077143Y-88573571D01*
X142077143Y-88073571D02*
X142005714Y-88145000D01*
X142077143Y-88216429D01*
X142148571Y-88145000D01*
X142077143Y-88073571D01*
X142077143Y-88216429D01*
X142791429Y-88573571D02*
X142791429Y-89573571D01*
X142791429Y-88716429D02*
X142862857Y-88645000D01*
X143005715Y-88573571D01*
X143220000Y-88573571D01*
X143362857Y-88645000D01*
X143434286Y-88787857D01*
X143434286Y-89573571D01*
X144362858Y-89573571D02*
X144220000Y-89502143D01*
X144148572Y-89430714D01*
X144077143Y-89287857D01*
X144077143Y-88859286D01*
X144148572Y-88716429D01*
X144220000Y-88645000D01*
X144362858Y-88573571D01*
X144577143Y-88573571D01*
X144720000Y-88645000D01*
X144791429Y-88716429D01*
X144862858Y-88859286D01*
X144862858Y-89287857D01*
X144791429Y-89430714D01*
X144720000Y-89502143D01*
X144577143Y-89573571D01*
X144362858Y-89573571D01*
X136470000Y-92123571D02*
X136470000Y-90623571D01*
X137041428Y-90623571D01*
X137184286Y-90695000D01*
X137255714Y-90766429D01*
X137327143Y-90909286D01*
X137327143Y-91123571D01*
X137255714Y-91266429D01*
X137184286Y-91337857D01*
X137041428Y-91409286D01*
X136470000Y-91409286D01*
X137970000Y-92123571D02*
X137970000Y-91123571D01*
X137970000Y-91409286D02*
X138041428Y-91266429D01*
X138112857Y-91195000D01*
X138255714Y-91123571D01*
X138398571Y-91123571D01*
X139112857Y-92123571D02*
X138969999Y-92052143D01*
X138898571Y-91980714D01*
X138827142Y-91837857D01*
X138827142Y-91409286D01*
X138898571Y-91266429D01*
X138969999Y-91195000D01*
X139112857Y-91123571D01*
X139327142Y-91123571D01*
X139469999Y-91195000D01*
X139541428Y-91266429D01*
X139612857Y-91409286D01*
X139612857Y-91837857D01*
X139541428Y-91980714D01*
X139469999Y-92052143D01*
X139327142Y-92123571D01*
X139112857Y-92123571D01*
X141398571Y-92123571D02*
X141398571Y-91123571D01*
X141398571Y-91266429D02*
X141469999Y-91195000D01*
X141612857Y-91123571D01*
X141827142Y-91123571D01*
X141969999Y-91195000D01*
X142041428Y-91337857D01*
X142041428Y-92123571D01*
X142041428Y-91337857D02*
X142112857Y-91195000D01*
X142255714Y-91123571D01*
X142469999Y-91123571D01*
X142612857Y-91195000D01*
X142684285Y-91337857D01*
X142684285Y-92123571D01*
X143398571Y-92123571D02*
X143398571Y-91123571D01*
X143398571Y-90623571D02*
X143327142Y-90695000D01*
X143398571Y-90766429D01*
X143469999Y-90695000D01*
X143398571Y-90623571D01*
X143398571Y-90766429D01*
X144112857Y-91123571D02*
X144112857Y-92123571D01*
X144112857Y-91266429D02*
X144184285Y-91195000D01*
X144327143Y-91123571D01*
X144541428Y-91123571D01*
X144684285Y-91195000D01*
X144755714Y-91337857D01*
X144755714Y-92123571D01*
X145470000Y-92123571D02*
X145470000Y-91123571D01*
X145470000Y-90623571D02*
X145398571Y-90695000D01*
X145470000Y-90766429D01*
X145541428Y-90695000D01*
X145470000Y-90623571D01*
X145470000Y-90766429D01*
X138684286Y-93173571D02*
X139184286Y-94673571D01*
X139684286Y-93173571D01*
X140970000Y-94673571D02*
X140112857Y-94673571D01*
X140541429Y-94673571D02*
X140541429Y-93173571D01*
X140398572Y-93387857D01*
X140255714Y-93530714D01*
X140112857Y-93602143D01*
X141612857Y-94530714D02*
X141684285Y-94602143D01*
X141612857Y-94673571D01*
X141541428Y-94602143D01*
X141612857Y-94530714D01*
X141612857Y-94673571D01*
X142612857Y-93173571D02*
X142755714Y-93173571D01*
X142898571Y-93245000D01*
X142970000Y-93316429D01*
X143041429Y-93459286D01*
X143112857Y-93745000D01*
X143112857Y-94102143D01*
X143041429Y-94387857D01*
X142970000Y-94530714D01*
X142898571Y-94602143D01*
X142755714Y-94673571D01*
X142612857Y-94673571D01*
X142470000Y-94602143D01*
X142398571Y-94530714D01*
X142327143Y-94387857D01*
X142255714Y-94102143D01*
X142255714Y-93745000D01*
X142327143Y-93459286D01*
X142398571Y-93316429D01*
X142470000Y-93245000D01*
X142612857Y-93173571D01*
X150602143Y-103651857D02*
X150816429Y-103723286D01*
X150887857Y-103794714D01*
X150959286Y-103937571D01*
X150959286Y-104151857D01*
X150887857Y-104294714D01*
X150816429Y-104366143D01*
X150673571Y-104437571D01*
X150102143Y-104437571D01*
X150102143Y-102937571D01*
X150602143Y-102937571D01*
X150745000Y-103009000D01*
X150816429Y-103080429D01*
X150887857Y-103223286D01*
X150887857Y-103366143D01*
X150816429Y-103509000D01*
X150745000Y-103580429D01*
X150602143Y-103651857D01*
X150102143Y-103651857D01*
X147597857Y-104009000D02*
X148312143Y-104009000D01*
X147455000Y-104437571D02*
X147955000Y-102937571D01*
X148455000Y-104437571D01*
X144252143Y-103651857D02*
X144466429Y-103723286D01*
X144537857Y-103794714D01*
X144609286Y-103937571D01*
X144609286Y-104151857D01*
X144537857Y-104294714D01*
X144466429Y-104366143D01*
X144323571Y-104437571D01*
X143752143Y-104437571D01*
X143752143Y-102937571D01*
X144252143Y-102937571D01*
X144395000Y-103009000D01*
X144466429Y-103080429D01*
X144537857Y-103223286D01*
X144537857Y-103366143D01*
X144466429Y-103509000D01*
X144395000Y-103580429D01*
X144252143Y-103651857D01*
X143752143Y-103651857D01*
X141247857Y-104009000D02*
X141962143Y-104009000D01*
X141105000Y-104437571D02*
X141605000Y-102937571D01*
X142105000Y-104437571D01*
D12*
X152024080Y-102295960D02*
X146425920Y-102295960D01*
X146624040Y-102793800D02*
X146624040Y-102295960D01*
X151825960Y-102295960D02*
X151825960Y-102793800D01*
X149225000Y-102793800D02*
X149225000Y-102295960D01*
X146425920Y-96994980D02*
X152024080Y-96994980D01*
X146425920Y-102793800D02*
X152024080Y-102793800D01*
X152024080Y-102793800D02*
X152024080Y-96596200D01*
X152024080Y-96596200D02*
X146425920Y-96596200D01*
X146425920Y-96596200D02*
X146425920Y-102793800D01*
X145674080Y-102295960D02*
X140075920Y-102295960D01*
X140274040Y-102793800D02*
X140274040Y-102295960D01*
X145475960Y-102295960D02*
X145475960Y-102793800D01*
X142875000Y-102793800D02*
X142875000Y-102295960D01*
X140075920Y-96994980D02*
X145674080Y-96994980D01*
X140075920Y-102793800D02*
X145674080Y-102793800D01*
X145674080Y-102793800D02*
X145674080Y-96596200D01*
X145674080Y-96596200D02*
X140075920Y-96596200D01*
X140075920Y-96596200D02*
X140075920Y-102793800D01*
D13*
X138490000Y-99000000D02*
X135830000Y-99000000D01*
X138490000Y-101600000D02*
X138490000Y-99000000D01*
X135830000Y-101600000D02*
X135830000Y-99000000D01*
X138490000Y-101600000D02*
X135830000Y-101600000D01*
X138490000Y-102870000D02*
X138490000Y-104200000D01*
X138490000Y-104200000D02*
X137160000Y-104200000D01*
D12*
X151050667Y-95083381D02*
X151050667Y-95797667D01*
X151003047Y-95940524D01*
X150907809Y-96035762D01*
X150764952Y-96083381D01*
X150669714Y-96083381D01*
X152050667Y-96083381D02*
X151479238Y-96083381D01*
X151764952Y-96083381D02*
X151764952Y-95083381D01*
X151669714Y-95226238D01*
X151574476Y-95321476D01*
X151479238Y-95369095D01*
X144700667Y-95083381D02*
X144700667Y-95797667D01*
X144653047Y-95940524D01*
X144557809Y-96035762D01*
X144414952Y-96083381D01*
X144319714Y-96083381D01*
X145129238Y-95178619D02*
X145176857Y-95131000D01*
X145272095Y-95083381D01*
X145510191Y-95083381D01*
X145605429Y-95131000D01*
X145653048Y-95178619D01*
X145700667Y-95273857D01*
X145700667Y-95369095D01*
X145653048Y-95511952D01*
X145081619Y-96083381D01*
X145700667Y-96083381D01*
X133532667Y-102449381D02*
X133532667Y-103163667D01*
X133485047Y-103306524D01*
X133389809Y-103401762D01*
X133246952Y-103449381D01*
X133151714Y-103449381D01*
X134008857Y-103449381D02*
X134008857Y-102449381D01*
X134389810Y-102449381D01*
X134485048Y-102497000D01*
X134532667Y-102544619D01*
X134580286Y-102639857D01*
X134580286Y-102782714D01*
X134532667Y-102877952D01*
X134485048Y-102925571D01*
X134389810Y-102973190D01*
X134008857Y-102973190D01*
X135532667Y-103449381D02*
X134961238Y-103449381D01*
X135246952Y-103449381D02*
X135246952Y-102449381D01*
X135151714Y-102592238D01*
X135056476Y-102687476D01*
X134961238Y-102735095D01*
%LPC*%
D14*
X133350000Y-87630000D03*
D15*
X133350000Y-90170000D03*
X133350000Y-92710000D03*
X133350000Y-95250000D03*
X133350000Y-97790000D03*
X133350000Y-100330000D03*
D16*
X150495000Y-99695000D03*
D17*
X147955000Y-99695000D03*
D16*
X144145000Y-99695000D03*
D17*
X141605000Y-99695000D03*
D14*
X148590000Y-95250000D03*
D15*
X148590000Y-92710000D03*
X148590000Y-90170000D03*
D14*
X137160000Y-102870000D03*
D15*
X137160000Y-100330000D03*
M02*
