G04 #@! TF.FileFunction,Soldermask,Bot*
%FSLAX46Y46*%
G04 Gerber Fmt 4.6, Leading zero omitted, Abs format (unit mm)*
G04 Created by KiCad (PCBNEW 4.0.6) date 08/27/17 18:35:28*
%MOMM*%
%LPD*%
G01*
G04 APERTURE LIST*
%ADD10C,0.100000*%
%ADD11R,2.100000X2.100000*%
%ADD12O,2.100000X2.100000*%
%ADD13O,2.398980X2.398980*%
%ADD14R,2.398980X2.398980*%
%ADD15R,2.000000X1.400000*%
%ADD16R,1.150000X1.200000*%
%ADD17R,0.900000X1.300000*%
%ADD18R,1.300000X0.900000*%
%ADD19R,1.000000X1.950000*%
%ADD20R,1.370000X1.670000*%
%ADD21C,1.900000*%
G04 APERTURE END LIST*
D10*
D11*
X133350000Y-87630000D03*
D12*
X133350000Y-90170000D03*
X133350000Y-92710000D03*
X133350000Y-95250000D03*
X133350000Y-97790000D03*
X133350000Y-100330000D03*
D13*
X150495000Y-99695000D03*
D14*
X147955000Y-99695000D03*
D15*
X145415000Y-88670000D03*
X145415000Y-91670000D03*
D16*
X137160000Y-90055000D03*
X137160000Y-91555000D03*
D13*
X144145000Y-99695000D03*
D14*
X141605000Y-99695000D03*
D11*
X148590000Y-95250000D03*
D12*
X148590000Y-92710000D03*
X148590000Y-90170000D03*
D11*
X137160000Y-102870000D03*
D12*
X137160000Y-100330000D03*
D17*
X144895000Y-102235000D03*
X143395000Y-102235000D03*
D18*
X136525000Y-86245000D03*
X136525000Y-87745000D03*
D17*
X135775000Y-93345000D03*
X137275000Y-93345000D03*
X135775000Y-95250000D03*
X137275000Y-95250000D03*
D18*
X145415000Y-85610000D03*
X145415000Y-87110000D03*
D17*
X140220000Y-95250000D03*
X141720000Y-95250000D03*
X140855000Y-93345000D03*
X142355000Y-93345000D03*
D19*
X139065000Y-86200000D03*
X140335000Y-86200000D03*
X141605000Y-86200000D03*
X142875000Y-86200000D03*
X142875000Y-91600000D03*
X141605000Y-91600000D03*
X140335000Y-91600000D03*
X139065000Y-91600000D03*
D20*
X135890000Y-97790000D03*
X137160000Y-97790000D03*
X138430000Y-97790000D03*
D21*
X133350000Y-102870000D03*
M02*
