G04 #@! TF.FileFunction,Legend,Bot*
%FSLAX46Y46*%
G04 Gerber Fmt 4.6, Leading zero omitted, Abs format (unit mm)*
G04 Created by KiCad (PCBNEW 4.0.6) date 08/27/17 18:35:28*
%MOMM*%
%LPD*%
G01*
G04 APERTURE LIST*
%ADD10C,0.100000*%
%ADD11C,0.120000*%
%ADD12C,0.150000*%
%ADD13R,2.100000X2.100000*%
%ADD14O,2.100000X2.100000*%
%ADD15O,2.398980X2.398980*%
%ADD16R,2.398980X2.398980*%
%ADD17R,2.000000X1.400000*%
%ADD18R,1.150000X1.200000*%
%ADD19R,0.900000X1.300000*%
%ADD20R,1.300000X0.900000*%
%ADD21R,1.000000X1.950000*%
%ADD22R,1.370000X1.670000*%
%ADD23C,1.900000*%
G04 APERTURE END LIST*
D10*
D11*
X134680000Y-101660000D02*
X132020000Y-101660000D01*
X134680000Y-88900000D02*
X134680000Y-101660000D01*
X132020000Y-88900000D02*
X132020000Y-101660000D01*
X134680000Y-88900000D02*
X132020000Y-88900000D01*
X134680000Y-87630000D02*
X134680000Y-86300000D01*
X134680000Y-86300000D02*
X133350000Y-86300000D01*
X144395000Y-91170000D02*
X144395000Y-89170000D01*
X146435000Y-89170000D02*
X146435000Y-91170000D01*
X136560000Y-90455000D02*
X136560000Y-91155000D01*
X137760000Y-91155000D02*
X137760000Y-90455000D01*
X147260000Y-88840000D02*
X149920000Y-88840000D01*
X147260000Y-93980000D02*
X147260000Y-88840000D01*
X149920000Y-93980000D02*
X149920000Y-88840000D01*
X147260000Y-93980000D02*
X149920000Y-93980000D01*
X147260000Y-95250000D02*
X147260000Y-96580000D01*
X147260000Y-96580000D02*
X148590000Y-96580000D01*
X143645000Y-102915000D02*
X144645000Y-102915000D01*
X144645000Y-101555000D02*
X143645000Y-101555000D01*
X137205000Y-87495000D02*
X137205000Y-86495000D01*
X135845000Y-86495000D02*
X135845000Y-87495000D01*
X137025000Y-92665000D02*
X136025000Y-92665000D01*
X136025000Y-94025000D02*
X137025000Y-94025000D01*
X137025000Y-94570000D02*
X136025000Y-94570000D01*
X136025000Y-95930000D02*
X137025000Y-95930000D01*
X146095000Y-86860000D02*
X146095000Y-85860000D01*
X144735000Y-85860000D02*
X144735000Y-86860000D01*
X141470000Y-94570000D02*
X140470000Y-94570000D01*
X140470000Y-95930000D02*
X141470000Y-95930000D01*
X142105000Y-92665000D02*
X141105000Y-92665000D01*
X141105000Y-94025000D02*
X142105000Y-94025000D01*
D12*
X138395000Y-86825000D02*
X138445000Y-86825000D01*
X138395000Y-90975000D02*
X138540000Y-90975000D01*
X143545000Y-90975000D02*
X143400000Y-90975000D01*
X143545000Y-86825000D02*
X143400000Y-86825000D01*
X138395000Y-86825000D02*
X138395000Y-90975000D01*
X143545000Y-86825000D02*
X143545000Y-90975000D01*
X138445000Y-86825000D02*
X138445000Y-85425000D01*
D11*
X135250000Y-96900000D02*
X139070000Y-96900000D01*
X139070000Y-96900000D02*
X139070000Y-98680000D01*
X139070000Y-98680000D02*
X135250000Y-98680000D01*
X135250000Y-96900000D02*
X135250000Y-98680000D01*
D12*
X133683333Y-84752381D02*
X133683333Y-85466667D01*
X133730953Y-85609524D01*
X133826191Y-85704762D01*
X133969048Y-85752381D01*
X134064286Y-85752381D01*
X132778571Y-85085714D02*
X132778571Y-85752381D01*
X133016667Y-84704762D02*
X133254762Y-85419048D01*
X132635714Y-85419048D01*
X145454666Y-93448143D02*
X145502285Y-93495762D01*
X145645142Y-93543381D01*
X145740380Y-93543381D01*
X145883238Y-93495762D01*
X145978476Y-93400524D01*
X146026095Y-93305286D01*
X146073714Y-93114810D01*
X146073714Y-92971952D01*
X146026095Y-92781476D01*
X145978476Y-92686238D01*
X145883238Y-92591000D01*
X145740380Y-92543381D01*
X145645142Y-92543381D01*
X145502285Y-92591000D01*
X145454666Y-92638619D01*
X144502285Y-93543381D02*
X145073714Y-93543381D01*
X144788000Y-93543381D02*
X144788000Y-92543381D01*
X144883238Y-92686238D01*
X144978476Y-92781476D01*
X145073714Y-92829095D01*
X136247143Y-90638334D02*
X136294762Y-90590715D01*
X136342381Y-90447858D01*
X136342381Y-90352620D01*
X136294762Y-90209762D01*
X136199524Y-90114524D01*
X136104286Y-90066905D01*
X135913810Y-90019286D01*
X135770952Y-90019286D01*
X135580476Y-90066905D01*
X135485238Y-90114524D01*
X135390000Y-90209762D01*
X135342381Y-90352620D01*
X135342381Y-90447858D01*
X135390000Y-90590715D01*
X135437619Y-90638334D01*
X135437619Y-91019286D02*
X135390000Y-91066905D01*
X135342381Y-91162143D01*
X135342381Y-91400239D01*
X135390000Y-91495477D01*
X135437619Y-91543096D01*
X135532857Y-91590715D01*
X135628095Y-91590715D01*
X135770952Y-91543096D01*
X136342381Y-90971667D01*
X136342381Y-91590715D01*
X149177333Y-97115381D02*
X149177333Y-97829667D01*
X149224953Y-97972524D01*
X149320191Y-98067762D01*
X149463048Y-98115381D01*
X149558286Y-98115381D01*
X148796381Y-97115381D02*
X148177333Y-97115381D01*
X148510667Y-97496333D01*
X148367809Y-97496333D01*
X148272571Y-97543952D01*
X148224952Y-97591571D01*
X148177333Y-97686810D01*
X148177333Y-97924905D01*
X148224952Y-98020143D01*
X148272571Y-98067762D01*
X148367809Y-98115381D01*
X148653524Y-98115381D01*
X148748762Y-98067762D01*
X148796381Y-98020143D01*
X146724666Y-102687381D02*
X147058000Y-102211190D01*
X147296095Y-102687381D02*
X147296095Y-101687381D01*
X146915142Y-101687381D01*
X146819904Y-101735000D01*
X146772285Y-101782619D01*
X146724666Y-101877857D01*
X146724666Y-102020714D01*
X146772285Y-102115952D01*
X146819904Y-102163571D01*
X146915142Y-102211190D01*
X147296095Y-102211190D01*
X145772285Y-102687381D02*
X146343714Y-102687381D01*
X146058000Y-102687381D02*
X146058000Y-101687381D01*
X146153238Y-101830238D01*
X146248476Y-101925476D01*
X146343714Y-101973095D01*
X135707381Y-86828334D02*
X135231190Y-86495000D01*
X135707381Y-86256905D02*
X134707381Y-86256905D01*
X134707381Y-86637858D01*
X134755000Y-86733096D01*
X134802619Y-86780715D01*
X134897857Y-86828334D01*
X135040714Y-86828334D01*
X135135952Y-86780715D01*
X135183571Y-86733096D01*
X135231190Y-86637858D01*
X135231190Y-86256905D01*
X134802619Y-87209286D02*
X134755000Y-87256905D01*
X134707381Y-87352143D01*
X134707381Y-87590239D01*
X134755000Y-87685477D01*
X134802619Y-87733096D01*
X134897857Y-87780715D01*
X134993095Y-87780715D01*
X135135952Y-87733096D01*
X135707381Y-87161667D01*
X135707381Y-87780715D01*
X138882381Y-93432334D02*
X138406190Y-93099000D01*
X138882381Y-92860905D02*
X137882381Y-92860905D01*
X137882381Y-93241858D01*
X137930000Y-93337096D01*
X137977619Y-93384715D01*
X138072857Y-93432334D01*
X138215714Y-93432334D01*
X138310952Y-93384715D01*
X138358571Y-93337096D01*
X138406190Y-93241858D01*
X138406190Y-92860905D01*
X137882381Y-93765667D02*
X137882381Y-94384715D01*
X138263333Y-94051381D01*
X138263333Y-94194239D01*
X138310952Y-94289477D01*
X138358571Y-94337096D01*
X138453810Y-94384715D01*
X138691905Y-94384715D01*
X138787143Y-94337096D01*
X138834762Y-94289477D01*
X138882381Y-94194239D01*
X138882381Y-93908524D01*
X138834762Y-93813286D01*
X138787143Y-93765667D01*
X138882381Y-95464334D02*
X138406190Y-95131000D01*
X138882381Y-94892905D02*
X137882381Y-94892905D01*
X137882381Y-95273858D01*
X137930000Y-95369096D01*
X137977619Y-95416715D01*
X138072857Y-95464334D01*
X138215714Y-95464334D01*
X138310952Y-95416715D01*
X138358571Y-95369096D01*
X138406190Y-95273858D01*
X138406190Y-94892905D01*
X138215714Y-96321477D02*
X138882381Y-96321477D01*
X137834762Y-96083381D02*
X138549048Y-95845286D01*
X138549048Y-96464334D01*
X147772381Y-86193334D02*
X147296190Y-85860000D01*
X147772381Y-85621905D02*
X146772381Y-85621905D01*
X146772381Y-86002858D01*
X146820000Y-86098096D01*
X146867619Y-86145715D01*
X146962857Y-86193334D01*
X147105714Y-86193334D01*
X147200952Y-86145715D01*
X147248571Y-86098096D01*
X147296190Y-86002858D01*
X147296190Y-85621905D01*
X146772381Y-87098096D02*
X146772381Y-86621905D01*
X147248571Y-86574286D01*
X147200952Y-86621905D01*
X147153333Y-86717143D01*
X147153333Y-86955239D01*
X147200952Y-87050477D01*
X147248571Y-87098096D01*
X147343810Y-87145715D01*
X147581905Y-87145715D01*
X147677143Y-87098096D01*
X147724762Y-87050477D01*
X147772381Y-86955239D01*
X147772381Y-86717143D01*
X147724762Y-86621905D01*
X147677143Y-86574286D01*
X143327381Y-95083334D02*
X142851190Y-94750000D01*
X143327381Y-94511905D02*
X142327381Y-94511905D01*
X142327381Y-94892858D01*
X142375000Y-94988096D01*
X142422619Y-95035715D01*
X142517857Y-95083334D01*
X142660714Y-95083334D01*
X142755952Y-95035715D01*
X142803571Y-94988096D01*
X142851190Y-94892858D01*
X142851190Y-94511905D01*
X142327381Y-95940477D02*
X142327381Y-95750000D01*
X142375000Y-95654762D01*
X142422619Y-95607143D01*
X142565476Y-95511905D01*
X142755952Y-95464286D01*
X143136905Y-95464286D01*
X143232143Y-95511905D01*
X143279762Y-95559524D01*
X143327381Y-95654762D01*
X143327381Y-95845239D01*
X143279762Y-95940477D01*
X143232143Y-95988096D01*
X143136905Y-96035715D01*
X142898810Y-96035715D01*
X142803571Y-95988096D01*
X142755952Y-95940477D01*
X142708333Y-95845239D01*
X142708333Y-95654762D01*
X142755952Y-95559524D01*
X142803571Y-95511905D01*
X142898810Y-95464286D01*
X140152381Y-93432334D02*
X139676190Y-93099000D01*
X140152381Y-92860905D02*
X139152381Y-92860905D01*
X139152381Y-93241858D01*
X139200000Y-93337096D01*
X139247619Y-93384715D01*
X139342857Y-93432334D01*
X139485714Y-93432334D01*
X139580952Y-93384715D01*
X139628571Y-93337096D01*
X139676190Y-93241858D01*
X139676190Y-92860905D01*
X139152381Y-93765667D02*
X139152381Y-94432334D01*
X140152381Y-94003762D01*
X137921905Y-88352381D02*
X137921905Y-89161905D01*
X137874286Y-89257143D01*
X137826667Y-89304762D01*
X137731429Y-89352381D01*
X137540952Y-89352381D01*
X137445714Y-89304762D01*
X137398095Y-89257143D01*
X137350476Y-89161905D01*
X137350476Y-88352381D01*
X136350476Y-89352381D02*
X136921905Y-89352381D01*
X136636191Y-89352381D02*
X136636191Y-88352381D01*
X136731429Y-88495238D01*
X136826667Y-88590476D01*
X136921905Y-88638095D01*
X139279381Y-96956667D02*
X139993667Y-96956667D01*
X140136524Y-96909047D01*
X140231762Y-96813809D01*
X140279381Y-96670952D01*
X140279381Y-96575714D01*
X140279381Y-97432857D02*
X139279381Y-97432857D01*
X139279381Y-97813810D01*
X139327000Y-97909048D01*
X139374619Y-97956667D01*
X139469857Y-98004286D01*
X139612714Y-98004286D01*
X139707952Y-97956667D01*
X139755571Y-97909048D01*
X139803190Y-97813810D01*
X139803190Y-97432857D01*
X139374619Y-98385238D02*
X139327000Y-98432857D01*
X139279381Y-98528095D01*
X139279381Y-98766191D01*
X139327000Y-98861429D01*
X139374619Y-98909048D01*
X139469857Y-98956667D01*
X139565095Y-98956667D01*
X139707952Y-98909048D01*
X140279381Y-98337619D01*
X140279381Y-98956667D01*
X134580381Y-101735095D02*
X134580381Y-102306524D01*
X135580381Y-102020809D02*
X134580381Y-102020809D01*
X135580381Y-102639857D02*
X134580381Y-102639857D01*
X134580381Y-103020810D01*
X134628000Y-103116048D01*
X134675619Y-103163667D01*
X134770857Y-103211286D01*
X134913714Y-103211286D01*
X135008952Y-103163667D01*
X135056571Y-103116048D01*
X135104190Y-103020810D01*
X135104190Y-102639857D01*
X135580381Y-104163667D02*
X135580381Y-103592238D01*
X135580381Y-103877952D02*
X134580381Y-103877952D01*
X134723238Y-103782714D01*
X134818476Y-103687476D01*
X134866095Y-103592238D01*
%LPC*%
D13*
X133350000Y-87630000D03*
D14*
X133350000Y-90170000D03*
X133350000Y-92710000D03*
X133350000Y-95250000D03*
X133350000Y-97790000D03*
X133350000Y-100330000D03*
D15*
X150495000Y-99695000D03*
D16*
X147955000Y-99695000D03*
D17*
X145415000Y-88670000D03*
X145415000Y-91670000D03*
D18*
X137160000Y-90055000D03*
X137160000Y-91555000D03*
D15*
X144145000Y-99695000D03*
D16*
X141605000Y-99695000D03*
D13*
X148590000Y-95250000D03*
D14*
X148590000Y-92710000D03*
X148590000Y-90170000D03*
D13*
X137160000Y-102870000D03*
D14*
X137160000Y-100330000D03*
D19*
X144895000Y-102235000D03*
X143395000Y-102235000D03*
D20*
X136525000Y-86245000D03*
X136525000Y-87745000D03*
D19*
X135775000Y-93345000D03*
X137275000Y-93345000D03*
X135775000Y-95250000D03*
X137275000Y-95250000D03*
D20*
X145415000Y-85610000D03*
X145415000Y-87110000D03*
D19*
X140220000Y-95250000D03*
X141720000Y-95250000D03*
X140855000Y-93345000D03*
X142355000Y-93345000D03*
D21*
X139065000Y-86200000D03*
X140335000Y-86200000D03*
X141605000Y-86200000D03*
X142875000Y-86200000D03*
X142875000Y-91600000D03*
X141605000Y-91600000D03*
X140335000Y-91600000D03*
X139065000Y-91600000D03*
D22*
X135890000Y-97790000D03*
X137160000Y-97790000D03*
X138430000Y-97790000D03*
D23*
X133350000Y-102870000D03*
M02*
